<svg width="22" height="19" viewBox="0 0 22 19" fill="none" xmlns="http://www.w3.org/2000/svg">
<path d="M16.5075 0.578064C14.5566 0.578064 12.4557 1.0183 11.005 2.22895C9.55434 1.0183 7.45339 0.578064 5.5025 0.578064C4.05184 0.578064 2.51114 0.820193 1.22055 1.44753C0.490223 1.81072 0 2.59214 0 3.48361V15.8982C0 17.329 1.22055 18.3856 2.48113 18.0334C3.46157 17.7582 4.50205 17.6372 5.5025 17.6372C7.06321 17.6372 8.72397 17.9233 10.0646 18.6497C10.6648 18.9799 11.3452 18.9799 11.9354 18.6497C13.276 17.9123 14.9368 17.6372 16.4975 17.6372C17.498 17.6372 18.5384 17.7582 19.5189 18.0334C20.7794 18.3966 22 17.34 22 15.8982V3.48361C22 2.59214 21.5098 1.81072 20.7794 1.44753C19.4989 0.820193 17.9582 0.578064 16.5075 0.578064ZM20.0091 14.5885C20.0091 15.2819 19.4288 15.7882 18.8085 15.6671C18.0582 15.513 17.2779 15.447 16.5075 15.447C14.8067 15.447 12.3556 16.1624 11.005 17.0979V4.43012C12.3556 3.49462 14.8067 2.77924 16.5075 2.77924C17.4279 2.77924 18.3383 2.87829 19.2087 3.0874C19.6689 3.19746 20.0091 3.6487 20.0091 4.16598V14.5885Z" fill="url(#paint0_linear_36_46)"/>
<path d="M12.9859 7.74284C12.6658 7.74284 12.3756 7.52272 12.2756 7.17053C12.1455 6.7413 12.3656 6.26805 12.7558 6.13598C14.2965 5.58569 16.2874 5.40959 18.1182 5.64072C18.5284 5.69575 18.8286 6.10296 18.7785 6.5542C18.7285 7.00544 18.3583 7.33562 17.9482 7.28059C16.3274 7.07148 14.5566 7.23657 13.216 7.70982C13.136 7.72083 13.0559 7.74284 12.9859 7.74284Z" fill="url(#paint1_linear_36_46)"/>
<path d="M12.9859 10.6705C12.6658 10.6705 12.3756 10.4503 12.2756 10.0981C12.1455 9.66892 12.3656 9.19566 12.7558 9.06359C14.2865 8.5133 16.2874 8.33721 18.1182 8.56833C18.5284 8.62336 18.8286 9.03058 18.7785 9.48182C18.7285 9.93306 18.3583 10.2632 17.9482 10.2082C16.3274 9.99909 14.5566 10.1642 13.216 10.6374C13.136 10.6594 13.0559 10.6705 12.9859 10.6705Z" fill="url(#paint2_linear_36_46)"/>
<path d="M12.9859 13.5981C12.6658 13.5981 12.3756 13.3779 12.2756 13.0258C12.1455 12.5965 12.3656 12.1233 12.7558 11.9912C14.2865 11.4409 16.2874 11.2648 18.1182 11.4959C18.5284 11.551 18.8286 11.9582 18.7785 12.4094C18.7285 12.8607 18.3583 13.1798 17.9482 13.1358C16.3274 12.9267 14.5566 13.0918 13.216 13.565C13.136 13.5871 13.0559 13.5981 12.9859 13.5981Z" fill="url(#paint3_linear_36_46)"/>
<defs>
<linearGradient id="paint0_linear_36_46" x1="11" y1="0.578064" x2="11" y2="18.8973" gradientUnits="userSpaceOnUse">
<stop stop-color="#7FF722"/>
<stop offset="1" stop-color="#1AE008"/>
</linearGradient>
<linearGradient id="paint1_linear_36_46" x1="15.511" y1="5.54156" x2="15.511" y2="7.74284" gradientUnits="userSpaceOnUse">
<stop stop-color="#7FF722"/>
<stop offset="1" stop-color="#1AE008"/>
</linearGradient>
<linearGradient id="paint2_linear_36_46" x1="15.511" y1="8.46918" x2="15.511" y2="10.6705" gradientUnits="userSpaceOnUse">
<stop stop-color="#7FF722"/>
<stop offset="1" stop-color="#1AE008"/>
</linearGradient>
<linearGradient id="paint3_linear_36_46" x1="15.511" y1="11.3968" x2="15.511" y2="13.5981" gradientUnits="userSpaceOnUse">
<stop stop-color="#7FF722"/>
<stop offset="1" stop-color="#1AE008"/>
</linearGradient>
</defs>
</svg>
