<svg width="22" height="23" viewBox="0 0 22 23" fill="none" xmlns="http://www.w3.org/2000/svg">
<path d="M11.8712 15.401C12.0139 15.0048 11.9222 14.5535 11.6368 14.2454L9.50715 11.9782L9.53772 11.9451C11.3108 9.81 12.5743 7.35569 13.3182 4.75831H15.295C15.8453 4.75831 16.3038 4.26304 16.3038 3.66873V3.64671C16.3038 3.0524 15.8453 2.55713 15.295 2.55713H9.17089V1.45654C9.17089 0.851221 8.71234 0.355957 8.1519 0.355957C7.59146 0.355957 7.13291 0.851221 7.13291 1.45654V2.55713H1.0088C0.458544 2.55713 0 3.0524 0 3.64671C0 4.25204 0.458544 4.73629 1.0088 4.73629H11.3821C10.6994 6.87143 9.61924 8.88551 8.1519 10.6464C7.32652 9.66693 6.63361 8.59936 6.05279 7.47676C5.88975 7.15759 5.59424 6.95948 5.25798 6.95948C4.55487 6.95948 4.10652 7.78492 4.45298 8.44527C5.09494 9.68894 5.87956 10.8776 6.79665 11.9782L2.34367 16.7217C1.93608 17.1509 1.93608 17.8553 2.34367 18.2845C2.74108 18.7138 3.38304 18.7138 3.79063 18.2845L8.1519 13.563L10.2103 15.7862C10.7299 16.3475 11.6165 16.1384 11.8712 15.401V15.401ZM16.8133 9.16066C16.2019 9.16066 15.6516 9.56787 15.4377 10.1952L11.698 20.981C11.4534 21.6523 11.9222 22.3677 12.5845 22.3677C12.9819 22.3677 13.3385 22.1036 13.4812 21.6963L14.3881 19.0659H19.2283L20.1454 21.6963C20.288 22.0926 20.6447 22.3677 21.0421 22.3677C21.7044 22.3677 22.1732 21.6523 21.9388 20.981L18.1991 10.1952C17.9749 9.56787 17.4247 9.16066 16.8133 9.16066V9.16066ZM15.1625 16.8648L16.8133 12.0992L18.4641 16.8648H15.1625V16.8648Z" fill="url(#paint0_linear_36_54)"/>
<defs>
<linearGradient id="paint0_linear_36_54" x1="11" y1="0.355957" x2="11" y2="22.3677" gradientUnits="userSpaceOnUse">
<stop stop-color="#7FF722"/>
<stop offset="1" stop-color="#1AE008"/>
</linearGradient>
</defs>
</svg>
