<svg width="169" height="40" viewBox="0 0 169 40" fill="none" xmlns="http://www.w3.org/2000/svg">
<path d="M25.752 39H15.72L6.12 13.224C6.44 15.752 6.68 17.992 6.84 19.944C7.032 21.864 7.128 24.152 7.128 26.808V39H0.119995V5.73602H9.912L19.752 31.56C19.048 27.176 18.696 23.048 18.696 19.176V5.73602H25.752V39Z" fill="#141414"/>
<path d="M39.3881 13.512V39H31.8041V13.512H39.3881ZM35.5481 0.0720215C36.8601 0.0720215 37.9321 0.488022 38.7641 1.32002C39.6281 2.12002 40.0601 3.14402 40.0601 4.39202C40.0601 5.64002 39.6281 6.68002 38.7641 7.51202C37.9321 8.31202 36.8601 8.71202 35.5481 8.71202C34.2361 8.71202 33.1641 8.31202 32.3321 7.51202C31.5001 6.68002 31.0841 5.64002 31.0841 4.39202C31.0841 3.14402 31.5001 2.12002 32.3321 1.32002C33.1641 0.488022 34.2361 0.0720215 35.5481 0.0720215Z" fill="#141414"/>
<path d="M56.391 12.696C58.151 12.696 59.735 12.952 61.143 13.464C62.551 13.976 63.879 14.76 65.127 15.816L61.863 20.328C60.263 19.112 58.647 18.504 57.015 18.504C55.319 18.504 54.039 19.128 53.175 20.376C52.311 21.624 51.879 23.64 51.879 26.424C51.879 29.112 52.311 31.016 53.175 32.136C54.039 33.256 55.287 33.816 56.919 33.816C57.783 33.816 58.567 33.688 59.271 33.432C59.975 33.144 60.823 32.696 61.815 32.088L65.127 36.792C62.599 38.808 59.735 39.816 56.535 39.816C53.943 39.816 51.703 39.272 49.815 38.184C47.927 37.064 46.471 35.512 45.447 33.528C44.423 31.512 43.911 29.16 43.911 26.472C43.911 23.784 44.423 21.4 45.447 19.32C46.471 17.24 47.927 15.624 49.815 14.472C51.703 13.288 53.895 12.696 56.391 12.696Z" fill="#141414"/>
<path d="M78.4222 12.696C82.3262 12.696 85.3822 13.896 87.5902 16.296C89.7982 18.664 90.9022 21.992 90.9022 26.28C90.9022 29 90.3902 31.384 89.3662 33.432C88.3742 35.448 86.9342 37.016 85.0462 38.136C83.1902 39.256 80.9822 39.816 78.4222 39.816C74.5502 39.816 71.4942 38.632 69.2542 36.264C67.0462 33.864 65.9422 30.52 65.9422 26.232C65.9422 23.512 66.4382 21.144 67.4302 19.128C68.4542 17.08 69.8942 15.496 71.7502 14.376C73.6382 13.256 75.8622 12.696 78.4222 12.696ZM78.4222 18.264C76.8862 18.264 75.7342 18.92 74.9662 20.232C74.1982 21.512 73.8142 23.512 73.8142 26.232C73.8142 29.016 74.1822 31.048 74.9182 32.328C75.6862 33.608 76.8542 34.248 78.4222 34.248C79.9582 34.248 81.1102 33.608 81.8782 32.328C82.6462 31.016 83.0302 29 83.0302 26.28C83.0302 23.496 82.6462 21.464 81.8782 20.184C81.1422 18.904 79.9902 18.264 78.4222 18.264Z" fill="#141414"/>
<path d="M102.181 39.816C99.9735 39.816 98.2455 39.192 96.9975 37.944C95.7815 36.664 95.1735 34.856 95.1735 32.52V3.38402L102.757 2.56802V32.232C102.757 33.288 103.189 33.816 104.053 33.816C104.501 33.816 104.917 33.736 105.301 33.576L106.789 38.952C105.413 39.528 103.877 39.816 102.181 39.816Z" fill="#141414"/>
<path d="M116.431 39.816C114.223 39.816 112.495 39.192 111.247 37.944C110.031 36.664 109.423 34.856 109.423 32.52V3.38402L117.007 2.56802V32.232C117.007 33.288 117.439 33.816 118.303 33.816C118.751 33.816 119.167 33.736 119.551 33.576L121.039 38.952C119.663 39.528 118.127 39.816 116.431 39.816Z" fill="#141414"/>
<path d="M143.935 31.608C143.935 32.568 144.063 33.272 144.319 33.72C144.607 34.168 145.055 34.504 145.663 34.728L144.079 39.672C142.511 39.544 141.231 39.208 140.239 38.664C139.247 38.088 138.479 37.192 137.935 35.976C136.271 38.536 133.711 39.816 130.255 39.816C127.727 39.816 125.711 39.08 124.207 37.608C122.703 36.136 121.951 34.216 121.951 31.848C121.951 29.064 122.975 26.936 125.023 25.464C127.071 23.992 130.031 23.256 133.903 23.256H136.495V22.152C136.495 20.648 136.175 19.624 135.535 19.08C134.895 18.504 133.775 18.216 132.175 18.216C131.343 18.216 130.335 18.344 129.151 18.6C127.967 18.824 126.751 19.144 125.503 19.56L123.775 14.568C125.375 13.96 127.007 13.496 128.671 13.176C130.367 12.856 131.935 12.696 133.375 12.696C137.023 12.696 139.695 13.448 141.391 14.952C143.087 16.456 143.935 18.712 143.935 21.72V31.608ZM132.463 34.392C134.191 34.392 135.535 33.576 136.495 31.944V27.432H134.623C132.895 27.432 131.599 27.736 130.735 28.344C129.903 28.952 129.487 29.896 129.487 31.176C129.487 32.2 129.743 33 130.255 33.576C130.799 34.12 131.535 34.392 132.463 34.392Z" fill="#141414"/>
<path d="M158.483 12.696C160.307 12.696 162.019 12.968 163.619 13.512C165.219 14.056 166.627 14.824 167.843 15.816L165.059 20.088C162.979 18.776 160.883 18.12 158.771 18.12C157.779 18.12 157.011 18.296 156.467 18.648C155.955 18.968 155.699 19.432 155.699 20.04C155.699 20.52 155.811 20.92 156.035 21.24C156.291 21.528 156.787 21.832 157.523 22.152C158.259 22.472 159.395 22.856 160.931 23.304C163.587 24.072 165.555 25.08 166.835 26.328C168.147 27.544 168.803 29.24 168.803 31.416C168.803 33.144 168.307 34.648 167.315 35.928C166.323 37.176 164.963 38.136 163.235 38.808C161.507 39.48 159.587 39.816 157.475 39.816C155.331 39.816 153.331 39.48 151.475 38.808C149.651 38.136 148.099 37.208 146.819 36.024L150.515 31.896C152.659 33.56 154.915 34.392 157.283 34.392C158.435 34.392 159.331 34.184 159.971 33.768C160.643 33.352 160.979 32.76 160.979 31.992C160.979 31.384 160.851 30.904 160.595 30.552C160.339 30.2 159.843 29.88 159.107 29.592C158.371 29.272 157.203 28.888 155.603 28.44C153.075 27.704 151.187 26.68 149.939 25.368C148.691 24.056 148.067 22.424 148.067 20.472C148.067 19 148.483 17.688 149.315 16.536C150.179 15.352 151.395 14.424 152.963 13.752C154.563 13.048 156.403 12.696 158.483 12.696Z" fill="#141414"/>
</svg>
